<svg version="1.1" id="Layer_1" xmlns="http://www.w3.org/2000/svg" xmlns:xlink="http://www.w3.org/1999/xlink" x="0px" y="0px"
	 width="100%" viewBox="0 0 1024 1024" enable-background="new 0 0 1024 1024" xml:space="preserve">
<path fill="#000000" opacity="1.000000" stroke="none" 
	d="
M1025.000000,383.000000 
	C1025.000000,597.333313 1025.000000,811.166687 1025.000000,1025.000000 
	C683.666687,1025.000000 342.333344,1025.000000 1.000000,1025.000000 
	C1.000000,683.666687 1.000000,342.333344 1.000000,1.000000 
	C342.333344,1.000000 683.666687,1.000000 1025.000000,1.000000 
	C1025.000000,128.166672 1025.000000,255.333328 1025.000000,383.000000 
M896.309692,239.315460 
	C896.241089,236.876755 896.172485,234.438049 896.348083,231.089279 
	C896.364075,218.980194 896.415894,206.871017 896.386963,194.762039 
	C896.351257,179.844757 896.248352,164.927628 896.372131,149.063126 
	C894.825012,148.550797 893.278442,147.591736 891.730774,147.590134 
	C806.960938,147.501755 722.191101,147.482147 637.421204,147.487900 
	C621.947693,147.488937 606.474182,147.626541 590.113464,147.387589 
	C581.382080,147.453766 572.650635,147.519958 563.021790,147.345032 
	C533.335938,147.335846 503.650024,147.312149 473.964142,147.334808 
	C469.999298,147.337830 466.034637,147.575394 461.181854,147.356415 
	C356.271362,147.423676 251.360855,147.486954 146.450378,147.570984 
	C141.634140,147.574844 136.818085,147.765259 131.063889,147.634064 
	C130.561401,149.346863 129.623337,151.058746 129.619675,152.772614 
	C129.510452,203.860855 129.466949,254.949310 129.478073,306.037720 
	C129.481613,322.333862 129.668884,338.629913 129.453537,355.820587 
	C129.563492,360.905853 129.673447,365.991119 129.536957,371.969849 
	C129.623611,394.289734 129.710266,416.609589 129.484009,439.784943 
	C129.591125,443.207703 129.698242,446.630493 129.565094,450.957825 
	C129.710373,458.305267 129.855637,465.652679 129.787613,473.812225 
	C129.844727,475.204895 129.901840,476.597595 129.635834,478.656219 
	C129.718735,481.115112 129.801636,483.573975 129.704758,486.951111 
	C129.762482,508.624176 129.820190,530.297241 129.580200,552.688782 
	C129.684692,555.802490 129.789185,558.916138 129.697189,562.674316 
	C129.772446,563.111206 129.847702,563.548096 129.538666,564.704041 
	C129.633316,570.798401 129.727966,576.892700 129.570557,583.880066 
	C129.657333,587.571777 129.744110,591.263550 129.544281,595.722290 
	C129.527313,602.514893 129.498825,609.307434 129.495148,616.100037 
	C129.455704,688.929199 129.403336,761.758301 129.397095,834.587463 
	C129.395767,850.072021 129.566498,865.556519 129.410858,881.836243 
	C129.491806,883.211365 129.572754,884.586548 129.375931,886.749695 
	C129.471680,887.846741 129.567429,888.943848 129.429626,890.666748 
	C129.509613,891.098572 129.589615,891.530457 129.401871,892.775513 
	C133.263657,893.240784 137.125458,893.706055 141.904846,894.388611 
	C159.940506,894.311035 177.976151,894.233459 196.921158,894.396851 
	C264.792511,894.419006 332.663879,894.443970 400.535248,894.451721 
	C403.018585,894.452026 405.501923,894.281921 408.899353,894.426941 
	C419.605286,894.349731 430.311188,894.272522 441.920532,894.457642 
	C448.248291,894.370422 454.576050,894.283203 461.695038,894.429810 
	C480.639374,894.480835 499.583801,894.585876 518.528076,894.564148 
	C531.314026,894.549438 544.099670,894.355957 557.667419,894.592407 
	C567.105286,894.470215 576.543152,894.348083 586.895813,894.460754 
	C593.936951,894.385132 600.978088,894.309509 608.922485,894.498413 
	C678.958557,894.480713 748.994568,894.464600 819.030640,894.433533 
	C820.350403,894.432922 821.670105,894.254822 823.906860,894.377625 
	C846.274780,894.303467 868.642639,894.229309 891.875122,894.400208 
	C893.441589,893.856628 896.510559,896.002319 896.361328,891.092590 
	C896.342712,783.209473 896.325134,675.326416 896.291931,567.443298 
	C896.291565,566.294128 896.085876,565.144958 896.185852,563.079468 
	C896.233459,558.433411 896.338562,553.787170 896.319153,549.141418 
	C896.210083,523.097412 896.070923,497.053589 896.225708,470.108582 
	C896.252563,427.380096 896.291077,384.651581 896.293579,341.923096 
	C896.293945,335.615448 896.123962,329.307800 896.268311,322.347717 
	C896.191833,321.898590 896.115356,321.449463 896.278992,320.221954 
	C896.201904,319.147888 896.124817,318.073822 896.284790,316.096222 
	C896.200928,311.730774 896.117004,307.365326 896.255432,302.186249 
	C896.180725,300.790894 896.106079,299.395508 896.262024,297.115875 
	C896.190979,294.077454 896.119873,291.039001 896.284912,287.088776 
	C896.212463,271.392303 896.140015,255.695801 896.309692,239.315460 
M962.038574,980.517456 
	C964.359070,984.603149 966.679626,988.688843 969.468750,993.599548 
	C973.034851,980.853027 981.247986,973.180420 993.673706,969.242615 
	C980.946411,962.258179 980.001526,965.795166 968.571716,944.428467 
	C964.906860,957.015747 956.904724,964.894714 945.512634,968.330566 
	C951.042786,972.334412 956.312134,976.149353 962.038574,980.517456 
z"/>
<path fill="#FDFDFD" opacity="1.000000" stroke="none" 
	d="
M129.877899,551.970276 
	C129.820190,530.297241 129.762482,508.624176 130.076141,486.220276 
	C130.284668,482.989746 130.121811,480.489990 129.958969,477.990265 
	C129.901840,476.597595 129.844727,475.204895 130.285461,473.366425 
	C131.509750,471.758209 132.666565,470.669250 132.880005,469.419220 
	C133.463257,466.003540 133.330032,462.452240 134.047272,459.075012 
	C137.103928,444.682220 139.558685,430.090820 143.776993,416.035248 
	C148.085297,401.679779 153.966751,387.772186 159.602402,373.847809 
	C163.378738,364.517395 167.225586,355.089325 172.285934,346.432770 
	C181.065109,331.414490 190.466690,316.728058 200.232330,302.326324 
	C213.220718,283.171875 228.743835,266.236694 245.725403,250.414871 
	C264.040466,233.350616 283.495697,217.858856 304.846283,205.018036 
	C321.464142,195.023590 338.602936,185.492188 356.480652,178.102982 
	C376.480560,169.836655 397.445740,163.781143 418.248688,157.636353 
	C428.183105,154.701920 438.713470,153.785126 449.379578,151.924225 
	C451.675323,151.593399 453.660919,151.559814 455.431610,150.925873 
	C457.733734,150.101669 459.865051,148.800339 462.069885,147.704346 
	C466.034637,147.575394 469.999298,147.337830 473.964142,147.334808 
	C503.650024,147.312149 533.335938,147.335846 563.501465,147.834381 
	C565.029846,148.877243 566.025146,149.747025 567.135620,149.934357 
	C576.251038,151.472137 585.464966,152.514236 594.503662,154.402481 
	C620.112854,159.752457 645.406372,166.509857 669.226501,177.407196 
	C686.675110,185.389618 704.004883,194.022324 720.200989,204.245071 
	C737.204895,214.977646 752.794678,227.950638 769.288635,240.111298 
	C771.371582,241.550278 773.168335,242.822525 775.106079,244.389435 
	C776.827637,246.132919 778.408203,247.581757 780.136963,249.327286 
	C789.864136,259.746948 799.443176,269.869904 809.161987,280.295959 
	C816.848633,290.666504 824.393738,300.735138 831.943054,310.800659 
	C835.268494,315.234497 838.602356,319.661957 841.975708,324.423462 
	C842.682678,326.169678 843.346497,327.584747 844.110107,329.263489 
	C844.489380,330.017334 844.768799,330.507416 845.170288,331.312683 
	C846.866516,334.085022 848.440735,336.542145 850.047729,339.357422 
	C850.621704,340.925079 851.057373,342.196014 851.719971,343.334961 
	C862.594055,362.026611 870.928833,381.865356 877.877930,402.275146 
	C885.130310,423.575745 890.631409,445.345032 894.040283,467.619751 
	C894.223694,468.818695 895.287842,469.882843 895.942017,471.009705 
	C896.070923,497.053589 896.210083,523.097412 896.319153,549.141418 
	C896.338562,553.787170 896.233459,558.433411 895.686523,563.621704 
	C894.746216,568.340759 894.736755,572.618286 893.789795,576.677124 
	C889.621277,594.544617 885.593140,612.463013 880.685913,630.132996 
	C877.772278,640.623840 873.264465,650.667603 869.569214,660.946838 
	C862.416138,680.844788 852.588013,699.495972 841.055969,717.044495 
	C830.255859,733.479309 818.619690,749.550964 805.735474,764.378357 
	C792.505981,779.603088 778.127747,794.080627 762.752747,807.116577 
	C748.546265,819.161743 732.926941,829.831848 716.882507,839.340027 
	C699.001709,849.936584 680.400513,859.638611 661.250244,867.674438 
	C644.677368,874.628662 626.967102,878.947998 609.619751,883.947144 
	C601.572815,886.266052 593.193787,887.432922 584.553955,889.108154 
	C576.299194,890.091248 568.444641,891.012085 560.623352,892.159424 
	C559.303955,892.352905 558.127869,893.523376 556.885498,894.242432 
	C544.099670,894.355957 531.314026,894.549438 518.528076,894.564148 
	C499.583801,894.585876 480.639374,894.480835 461.262390,893.939514 
	C459.284210,892.671448 457.812653,891.495056 456.178986,891.191589 
	C451.503479,890.323242 446.762207,889.809082 441.639893,889.064331 
	C436.218872,887.998718 431.125305,887.320007 426.205078,885.996704 
	C409.134583,881.405518 391.841980,877.402710 375.177490,871.611877 
	C361.030334,866.695801 347.355530,860.164246 333.984894,853.341858 
	C320.619507,846.522095 307.580688,838.937378 294.950562,830.828552 
	C271.830109,815.984436 250.705124,798.502930 232.082703,778.317383 
	C220.423889,765.679932 209.694717,752.131775 199.177032,738.507019 
	C183.410217,718.082520 170.938980,695.614197 160.551727,672.039856 
	C151.241547,650.910034 143.686050,629.130371 138.433380,606.617798 
	C136.609344,598.800110 135.366333,590.846985 133.835052,582.546387 
	C133.511032,579.053406 133.479507,575.911865 132.833237,572.902344 
	C132.180344,569.861755 130.918198,566.952026 129.922943,563.984985 
	C129.847702,563.548096 129.772446,563.111206 130.097290,562.080078 
	C130.290909,558.313965 130.084412,555.142090 129.877899,551.970276 
M560.206604,599.696350 
	C589.285095,587.547791 619.844543,581.562439 650.992249,578.561157 
	C651.205444,576.766113 651.457458,575.623779 651.459839,574.480896 
	C651.523438,544.526489 651.617737,514.571960 651.584106,484.617584 
	C651.560242,463.318207 651.180359,442.017914 651.319031,420.720367 
	C651.378052,411.660126 647.991333,406.608246 638.620361,404.118134 
	C634.642700,417.626953 627.800171,429.748596 619.945618,441.302063 
	C604.958191,463.347778 585.728699,481.563049 566.551758,499.805603 
	C547.620605,517.814392 528.589294,535.719421 509.843018,553.918457 
	C507.907410,555.797607 506.865051,559.327271 506.705231,562.164124 
	C506.275299,569.797424 506.543640,577.470215 506.542084,585.127380 
	C506.539124,599.686829 506.541229,614.246277 506.541229,629.955566 
	C523.007141,616.603943 540.648010,607.186340 560.206604,599.696350 
M495.849213,439.756592 
	C496.645538,435.317780 494.857147,431.849915 491.369598,429.413055 
	C481.038025,422.193970 471.121918,414.147247 460.075317,408.231873 
	C435.061218,394.837036 407.746124,388.981110 379.613892,386.921539 
	C372.220703,386.380249 364.754211,386.839935 357.132019,386.839935 
	C357.132019,438.217407 357.132019,489.475922 357.132019,541.578247 
	C359.036682,540.079712 360.037018,539.226746 361.102356,538.464783 
	C372.718597,530.156799 383.906525,521.147156 396.055054,513.706604 
	C426.329102,495.164612 459.274414,482.004333 491.722076,467.902283 
	C494.820557,466.555664 496.096039,465.076660 495.974060,461.689606 
	C495.722351,454.699829 495.862946,447.695923 495.849213,439.756592 
M438.339966,532.820007 
	C439.573456,531.970093 440.751556,531.022888 442.048584,530.284607 
	C471.375854,513.591003 500.627808,496.762177 530.079834,480.291229 
	C557.499451,464.956909 583.641907,447.976685 604.830750,424.393250 
	C610.754944,417.799530 616.612244,411.039032 619.528687,402.135406 
	C615.404602,404.274536 611.606628,406.759613 608.169678,409.670868 
	C603.982483,413.217682 600.286560,417.350922 596.052490,420.834625 
	C575.084167,438.086731 551.522644,451.235657 527.126953,462.764862 
	C498.270630,476.402130 468.885712,488.916290 439.917877,502.323334 
	C412.193817,515.154785 385.853607,530.338318 363.107391,551.047058 
	C349.583374,563.359619 337.770447,577.044189 331.508881,594.619141 
	C328.805817,602.206055 326.613098,610.193115 330.730835,617.850769 
	C334.656097,625.150513 339.098022,632.238220 343.967865,638.943359 
	C347.859131,644.301208 352.734436,648.944397 358.063812,654.900330 
	C357.588440,619.541077 371.752838,592.181335 394.519379,568.513489 
	C407.513123,555.005432 422.000549,543.341370 438.339966,532.820007 
M662.323730,549.500000 
	C662.305176,561.165894 662.123047,572.835144 662.356689,584.495972 
	C662.438599,588.583923 661.237366,589.744568 657.080200,590.063354 
	C628.460571,592.258118 600.273315,597.081238 573.052551,606.357666 
	C550.054199,614.195190 527.363220,622.806580 508.212982,638.573181 
	C503.162170,642.731567 499.655853,642.287720 494.253021,638.272522 
	C492.786011,637.182312 491.422119,635.939392 489.892181,634.950256 
	C485.627197,632.192993 481.299957,629.531921 476.997314,626.832886 
	C476.660278,627.138306 476.323273,627.443787 475.986237,627.749268 
	C477.915649,635.605652 477.601044,644.518677 484.857086,650.146545 
	C497.176666,659.701843 518.102966,656.287964 524.848267,643.490234 
	C525.763794,641.753296 527.610413,640.096008 529.420715,639.303894 
	C554.703491,628.240845 581.191895,620.856018 608.425171,617.387451 
	C631.480835,614.451111 654.870728,614.139648 678.112244,612.660400 
	C679.892456,612.547058 681.669434,612.384583 683.874390,612.211487 
	C683.874390,610.135864 683.875671,608.499023 683.874146,606.862183 
	C683.840210,570.531250 683.802917,534.200256 683.772827,497.869324 
	C683.750732,471.204468 683.663086,444.539185 683.800049,417.875122 
	C683.821228,413.747162 682.428101,411.547943 678.375000,411.116516 
	C675.071655,410.764923 671.710876,410.739410 668.465393,410.107697 
	C663.344360,409.110809 662.321411,411.311676 662.333435,416.009125 
	C662.446411,460.172455 662.356323,504.336304 662.323730,549.500000 
M345.892883,430.500671 
	C345.865204,426.835449 345.868652,423.169708 345.803864,419.505127 
	C345.624847,409.383331 347.771851,409.908569 336.464355,410.661713 
	C322.557678,411.588013 324.869995,409.699127 324.853149,422.899139 
	C324.788513,473.546295 324.802338,524.193542 324.809143,574.840759 
	C324.809479,577.180603 325.024780,579.520508 325.139984,581.860352 
	C330.646393,571.424377 336.991486,562.243896 344.923218,554.097107 
	C345.866699,553.128052 345.929352,551.029724 345.930450,549.454529 
	C345.957886,510.136475 345.922180,470.818420 345.892883,430.500671 
M646.961853,280.614014 
	C643.158813,278.946899 639.438477,277.032104 635.516296,275.721497 
	C633.669739,275.104462 631.185669,275.039581 629.416931,275.764771 
	C617.578247,280.618866 605.851257,285.745758 594.094788,290.799835 
	C588.052673,293.397339 582.024414,296.027191 574.754944,299.177612 
	C578.701172,300.835693 581.506775,301.734589 583.998840,303.175781 
	C585.312134,303.935272 587.034485,305.728394 586.927429,306.905304 
	C586.431763,312.356415 589.223450,318.179169 585.279968,323.290070 
	C584.975647,323.684448 585.011963,324.820343 585.346497,325.154358 
	C588.407837,328.210968 586.602905,331.110779 585.508972,334.292786 
	C584.628357,336.854218 584.636719,339.721252 584.227112,342.619385 
	C587.843140,342.619385 590.880798,342.619385 594.397156,342.619385 
	C592.983154,330.407135 589.870239,318.724762 591.457275,306.063843 
	C600.989136,310.187042 609.709595,314.206207 618.628967,317.720428 
	C623.599548,319.678833 629.787109,323.311066 633.901123,321.861267 
	C652.327148,315.367767 670.205200,307.319122 689.651489,299.264099 
	C674.894592,292.796509 661.288635,286.833344 646.961853,280.614014 
M575.122986,394.677612 
	C568.686890,396.911804 562.147644,398.889496 555.834656,401.429718 
	C538.896545,408.245209 523.197021,417.158508 509.859924,429.826752 
	C508.445892,431.169891 506.387756,432.843750 506.324188,434.432037 
	C505.976410,443.120544 506.158478,451.830261 506.158478,461.047974 
	C507.716064,460.439240 508.495239,460.211487 509.203705,459.846497 
	C524.846924,451.786041 540.767395,444.210907 556.044739,435.507019 
	C573.868042,425.352722 590.520691,413.462219 602.988770,396.707672 
	C604.803223,394.269409 606.128723,391.467285 607.680481,388.833527 
	C607.370300,388.359100 607.060059,387.884674 606.749878,387.410248 
	C596.457275,389.734009 586.164673,392.057770 575.122986,394.677612 
M607.100159,365.090332 
	C603.575623,365.644806 605.458130,367.195587 606.664795,368.208557 
	C609.720398,370.773621 612.848267,373.267700 616.089172,375.592224 
	C618.898071,377.606934 619.776855,379.874908 618.684875,383.300964 
	C617.189697,387.991486 616.172668,392.834381 614.950684,397.611969 
	C620.001221,395.731079 624.320496,393.328278 628.206421,390.358337 
	C631.298889,387.994873 633.601868,388.273376 636.573547,390.502594 
	C640.274170,393.278625 644.363770,395.536163 649.415710,398.732819 
	C648.077271,392.531647 647.136353,387.846527 646.038818,383.198395 
	C645.266541,379.927734 646.015808,377.541016 648.856140,375.437531 
	C652.630493,372.642303 656.061218,369.383148 660.644348,365.464203 
	C655.025635,364.982788 650.760925,364.124390 646.565430,364.384094 
	C641.451782,364.700623 639.081604,362.550934 637.712646,357.914215 
	C636.495178,353.790924 634.593750,349.869598 632.994202,345.859161 
	C630.862366,347.864807 629.700623,349.694336 629.208984,351.689056 
	C627.024841,360.550354 622.600403,366.249146 612.370850,364.651855 
	C610.936584,364.427917 609.397034,364.879028 607.100159,365.090332 
M657.459656,318.032837 
	C652.271362,320.232208 646.889526,322.070343 641.942566,324.720245 
	C635.422546,328.212769 629.490662,328.559998 622.749207,324.928711 
	C616.281250,321.444702 609.166321,319.161652 601.752686,316.110931 
	C601.752686,320.434570 601.978333,323.731537 601.696472,326.984558 
	C601.331177,331.201416 602.933350,334.312958 606.717712,335.747406 
	C612.094360,337.785461 617.569702,339.817810 623.186096,340.915894 
	C635.262024,343.276978 646.992310,341.399902 658.000488,335.989502 
	C660.091003,334.961975 662.479858,332.506622 662.830078,330.394775 
	C663.570618,325.929596 663.055603,321.256165 663.055603,316.112915 
	C660.937256,316.815979 659.552856,317.275452 657.459656,318.032837 
M476.673065,606.098022 
	C476.660553,609.137085 475.361176,613.623535 476.863281,614.959045 
	C482.675659,620.126648 489.381012,624.289978 495.926086,628.950073 
	C495.926086,609.624573 495.926086,590.776367 495.926086,571.928162 
	C487.198669,581.909546 480.223053,592.605042 476.673065,606.098022 
M414.411407,650.707031 
	C417.862274,651.474487 421.313141,652.241943 425.116638,653.087830 
	C423.181824,647.536133 421.136200,641.666504 418.648773,634.529297 
	C414.440155,641.554138 410.979218,647.330933 407.518280,653.107727 
	C407.784943,653.394287 408.051575,653.680786 408.318237,653.967346 
	C410.130035,652.994263 411.941803,652.021118 414.411407,650.707031 
M433.342255,597.217407 
	C434.036163,598.150208 434.730042,599.083069 435.423950,600.015869 
	C435.786377,599.888672 436.148804,599.761475 436.511230,599.634277 
	C436.511230,594.216431 436.511230,588.798584 436.511230,581.902466 
	C431.743469,586.271240 427.835938,589.851807 424.354218,593.042175 
	C427.724426,594.412048 430.348175,595.478516 433.342255,597.217407 
M453.571991,551.714111 
	C456.528717,554.171143 459.485413,556.628235 462.995514,559.545166 
	C464.179810,555.460571 465.451477,551.074585 467.152740,545.206909 
	C461.770691,547.667175 457.897644,549.437622 453.571991,551.714111 
M501.373291,522.815674 
	C500.947784,521.886902 500.361145,520.111023 500.121033,520.156738 
	C496.679596,520.811523 493.284851,521.711914 490.669586,522.357910 
	C493.177521,525.687927 495.266998,528.462341 497.475891,531.395264 
	C498.624756,528.868408 499.841736,526.191711 501.373291,522.815674 
M531.319214,506.435303 
	C532.735535,503.344391 534.151855,500.253479 536.067383,496.073151 
	C531.353760,496.915222 528.291138,497.462341 525.892456,497.890869 
	C527.690857,501.048767 529.172180,503.649902 531.319214,506.435303 
M562.504944,482.995331 
	C563.691406,480.319855 564.877869,477.644409 566.064331,474.968964 
	C565.669678,474.600006 565.275085,474.231049 564.880493,473.862091 
	C561.981567,474.791046 559.082703,475.720001 556.488220,476.551392 
	C558.570618,478.982941 560.185364,480.868347 562.504944,482.995331 
M589.743347,459.856903 
	C589.743347,457.819031 589.743347,455.781158 589.743347,452.927582 
	C586.866211,454.434357 584.659790,455.589935 581.620544,457.181610 
	C584.751221,458.540222 587.069641,459.546295 589.743347,459.856903 
M619.390076,414.656067 
	C620.926941,415.931519 622.463745,417.206970 624.969727,419.286713 
	C624.969727,415.594971 624.969727,412.983521 624.969727,410.372101 
	C624.258972,409.934113 623.548157,409.496124 622.837402,409.058136 
	C621.788513,410.720215 620.739624,412.382263 619.390076,414.656067 
M610.545959,438.279480 
	C610.670349,436.091919 610.794739,433.904388 611.008240,430.149536 
	C608.148499,432.776306 606.507874,434.283295 604.764160,435.884949 
	C606.940369,436.957886 608.388611,437.671906 610.545959,438.279480 
z"/>
<path fill="#DDDDDE" opacity="1.000000" stroke="none" 
	d="
M584.965332,889.122070 
	C593.193787,887.432922 601.572815,886.266052 609.619751,883.947144 
	C626.967102,878.947998 644.677368,874.628662 661.250244,867.674438 
	C680.400513,859.638611 699.001709,849.936584 716.882507,839.340027 
	C732.926941,829.831848 748.546265,819.161743 762.752747,807.116577 
	C778.127747,794.080627 792.505981,779.603088 805.735474,764.378357 
	C818.619690,749.550964 830.255859,733.479309 841.055969,717.044495 
	C852.588013,699.495972 862.416138,680.844788 869.569214,660.946838 
	C873.264465,650.667603 877.772278,640.623840 880.685913,630.132996 
	C885.593140,612.463013 889.621277,594.544617 893.789795,576.677124 
	C894.736755,572.618286 894.746216,568.340759 895.581665,564.079834 
	C896.085876,565.144958 896.291565,566.294128 896.291931,567.443298 
	C896.325134,675.326416 896.342712,783.209473 895.843689,891.555969 
	C893.887573,892.731323 892.449097,893.443237 891.010559,894.155151 
	C868.642639,894.229309 846.274780,894.303467 823.367126,893.862976 
	C821.356750,892.902161 819.893188,892.099854 818.414307,892.070679 
	C811.502136,891.934448 804.585754,892.011902 797.670837,892.012085 
	C782.518677,892.012390 767.366577,892.012146 752.214417,892.012207 
	C736.895752,892.012268 721.575867,891.889038 706.258850,892.047729 
	C691.387024,892.201782 676.522644,891.680603 661.647034,891.943909 
	C645.334473,892.232666 629.012207,891.949402 612.696045,892.106750 
	C611.130432,892.121826 609.577881,893.492493 608.019226,894.233887 
	C600.978088,894.309509 593.936951,894.385132 586.407593,893.966492 
	C585.601318,892.022156 585.283325,890.572083 584.965332,889.122070 
z"/>
<path fill="#DEDEDF" opacity="1.000000" stroke="none" 
	d="
M133.857941,582.955688 
	C135.366333,590.846985 136.609344,598.800110 138.433380,606.617798 
	C143.686050,629.130371 151.241547,650.910034 160.551727,672.039856 
	C170.938980,695.614197 183.410217,718.082520 199.177032,738.507019 
	C209.694717,752.131775 220.423889,765.679932 232.082703,778.317383 
	C250.705124,798.502930 271.830109,815.984436 294.950562,830.828552 
	C307.580688,838.937378 320.619507,846.522095 333.984894,853.341858 
	C347.355530,860.164246 361.030334,866.695801 375.177490,871.611877 
	C391.841980,877.402710 409.134583,881.405518 426.205078,885.996704 
	C431.125305,887.320007 436.218872,887.998718 441.622070,889.428467 
	C441.679810,891.321167 441.348450,892.758240 441.017120,894.195374 
	C430.311188,894.272522 419.605286,894.349731 408.364441,893.900391 
	C406.199402,892.919617 404.574158,892.094055 402.938324,892.072449 
	C393.458282,891.947510 383.975616,892.036316 374.494049,892.003296 
	C368.489105,891.982361 361.854462,893.264648 359.668060,883.516968 
	C356.735443,891.603882 351.148529,892.055359 345.300201,892.021851 
	C339.537323,891.988770 333.774109,892.014771 328.011047,892.014648 
	C285.759277,892.013794 243.507416,891.987244 201.255966,892.102722 
	C199.506058,892.107483 197.759781,893.441284 196.011810,894.155884 
	C177.976151,894.233459 159.940506,894.311035 141.368500,893.880615 
	C137.111298,892.902466 133.390442,892.432373 129.669601,891.962280 
	C129.589615,891.530457 129.509613,891.098572 129.869141,890.317139 
	C130.838394,889.120483 131.659515,888.307373 131.764099,887.410706 
	C131.810242,887.015137 130.401764,886.449890 129.653717,885.961670 
	C129.572754,884.586548 129.491806,883.211365 129.905090,881.384644 
	C130.929123,879.042847 131.920898,877.153015 131.922470,875.262329 
	C131.997116,785.559753 131.974472,695.857056 132.024414,606.154419 
	C132.026520,602.361694 132.612335,598.569153 132.946594,594.530334 
	C132.294418,594.619263 131.062653,594.787292 129.830902,594.955322 
	C129.744110,591.263550 129.657333,587.571777 130.102478,583.434082 
	C131.708908,582.977356 132.783417,582.966553 133.857941,582.955688 
z"/>
<path fill="#DDDDDE" opacity="1.000000" stroke="none" 
	d="
M448.973907,151.954468 
	C438.713470,153.785126 428.183105,154.701920 418.248688,157.636353 
	C397.445740,163.781143 376.480560,169.836655 356.480652,178.102982 
	C338.602936,185.492188 321.464142,195.023590 304.846283,205.018036 
	C283.495697,217.858856 264.040466,233.350616 245.725403,250.414871 
	C228.743835,266.236694 213.220718,283.171875 200.232330,302.326324 
	C190.466690,316.728058 181.065109,331.414490 172.285934,346.432770 
	C167.225586,355.089325 163.378738,364.517395 159.602402,373.847809 
	C153.966751,387.772186 148.085297,401.679779 143.776993,416.035248 
	C139.558685,430.090820 137.103928,444.682220 134.047272,459.075012 
	C133.330032,462.452240 133.463257,466.003540 132.880005,469.419220 
	C132.666565,470.669250 131.509750,471.758209 130.392105,472.960388 
	C129.855637,465.652679 129.710373,458.305267 130.088242,450.413635 
	C131.074051,446.255280 131.536713,442.641052 131.997986,438.556519 
	C131.996918,415.709473 131.997238,393.332764 131.993195,370.526123 
	C131.991394,368.081421 131.993958,366.066650 131.997879,363.626404 
	C131.998474,361.784180 131.997711,360.367401 131.992218,358.560303 
	C131.989899,357.132477 131.992325,356.094910 131.996887,354.585114 
	C132.000977,286.077820 132.002914,218.042801 132.473206,150.004913 
	C222.504593,150.001190 312.067627,150.000320 401.630646,149.999466 
	C415.780945,149.999329 429.931915,149.935745 444.080627,150.085159 
	C445.718140,150.102448 447.343109,151.302704 448.973907,151.954468 
z"/>
<path fill="#DDDDDD" opacity="1.000000" stroke="none" 
	d="
M896.174438,150.010437 
	C896.248352,164.927628 896.351257,179.844757 896.386963,194.762039 
	C896.415894,206.871017 896.364075,218.980194 895.843750,231.552490 
	C894.594299,232.514557 893.237793,232.968201 893.196960,233.519135 
	C892.689331,240.385605 892.292053,247.263962 892.102051,254.145767 
	C892.076294,255.078995 893.335693,256.047699 894.000000,257.375000 
	C894.000000,258.500000 894.000000,259.250000 893.641907,260.063812 
	C890.906616,263.296234 889.190430,266.411499 894.000000,269.399994 
	C894.000000,270.866669 894.000000,271.933319 893.702087,273.039062 
	C893.086182,273.484985 892.768127,273.891815 892.450073,274.298645 
	C892.966736,274.532440 893.483337,274.766235 894.000000,275.416656 
	C894.000000,277.222198 894.000000,278.611115 893.621826,280.043396 
	C889.694153,282.000732 886.106812,280.661774 884.305847,278.129669 
	C883.218445,276.600800 884.240662,272.659119 885.530334,270.541809 
	C888.220825,266.124756 886.696045,263.624878 883.081543,260.961700 
	C879.549072,258.358978 875.514771,255.926987 875.767639,250.449280 
	C875.802979,249.682907 874.127808,248.752182 873.137024,248.049011 
	C872.233154,247.407593 871.183350,246.971848 868.937683,245.772339 
	C872.199158,245.151382 873.878113,244.831726 876.251953,244.379761 
	C875.165771,242.733719 874.581726,241.345856 873.573425,240.419937 
	C871.100159,238.148880 868.603333,235.803909 865.753052,234.093506 
	C864.667358,233.441971 862.523315,234.241486 860.982666,234.747986 
	C859.423523,235.260620 858.055847,236.765747 856.530396,236.884155 
	C853.476257,237.121231 850.141113,237.375610 847.342041,236.407883 
	C843.150208,234.958618 837.647583,233.427536 835.764648,230.164276 
	C833.466919,226.182159 833.178406,220.141937 834.113342,215.404770 
	C835.502563,208.365356 833.452148,199.532684 827.407288,194.933090 
	C829.817749,189.900589 828.702026,188.265015 823.001587,187.951187 
	C820.391785,187.807510 817.811035,187.136230 815.217102,186.704239 
	C815.232788,186.235764 815.248413,185.767303 815.264099,185.298843 
	C816.757996,184.557877 818.251892,183.816925 819.745850,183.075958 
	C819.886414,182.553238 820.027039,182.030533 820.167603,181.507828 
	C817.328857,180.370972 814.545593,178.890793 811.600098,178.415192 
	C811.072632,178.330017 809.565918,182.327728 809.063416,184.564346 
	C808.415283,187.448914 808.572815,190.515823 807.910828,193.395569 
	C807.400513,195.615387 806.161560,197.667725 805.246582,199.794525 
	C804.628662,199.755844 804.010803,199.717163 803.392883,199.678467 
	C801.184021,190.635010 801.745972,180.791473 797.583740,172.312073 
	C797.114685,172.365662 796.645630,172.419266 796.176514,172.472855 
	C795.180908,177.229294 794.185303,181.985718 793.208801,186.650757 
	C789.161987,184.163254 786.114929,182.290314 783.280884,180.548279 
	C781.697693,182.541443 780.181885,184.449860 778.666016,186.358292 
	C778.154480,186.104858 777.642944,185.851440 777.131470,185.598007 
	C776.997131,183.536972 777.007935,181.454102 776.701477,179.418991 
	C775.759338,173.164215 775.778992,166.445999 773.292847,160.856140 
	C771.677490,157.224289 769.580750,154.131256 770.468628,150.002777 
	C812.683044,150.004318 854.428711,150.007370 896.174438,150.010437 
M782.436462,175.705780 
	C782.706848,175.989182 782.977234,176.272598 783.247620,176.555984 
	C783.364929,176.443893 783.590393,176.240524 783.583984,176.232880 
	C783.331604,175.934021 783.058167,175.652908 782.436462,175.705780 
z"/>
<path fill="#DFDFDF" opacity="1.000000" stroke="none" 
	d="
M769.002441,239.944565 
	C752.794678,227.950638 737.204895,214.977646 720.200989,204.245071 
	C704.004883,194.022324 686.675110,185.389618 669.226501,177.407196 
	C645.406372,166.509857 620.112854,159.752457 594.503662,154.402481 
	C585.464966,152.514236 576.251038,151.472137 567.135620,149.934357 
	C566.025146,149.747025 565.029846,148.877243 563.950195,147.954956 
	C572.650635,147.519958 581.382080,147.453766 590.599365,147.913803 
	C592.810730,148.958710 594.535034,149.925812 596.261719,149.930115 
	C633.174316,150.022049 670.087158,150.006027 707.001099,150.395264 
	C708.699585,154.032501 710.396912,157.285446 711.814087,160.001389 
	C714.196899,157.283463 716.555786,154.592865 719.804260,150.887512 
	C720.514465,160.173233 721.114990,168.024597 721.715454,175.875961 
	C722.293762,175.869598 722.872070,175.863251 723.450317,175.856903 
	C723.798279,173.010391 724.146240,170.163895 724.494263,167.317398 
	C725.114990,167.247299 725.735718,167.177200 726.356445,167.107117 
	C727.521057,171.561081 728.685608,176.015060 730.129211,181.536072 
	C732.183960,174.633240 729.347778,167.169449 736.244812,163.634430 
	C739.322449,165.340317 742.017761,166.834290 744.467529,168.192169 
	C744.467529,170.658264 744.056274,172.880814 744.618286,174.821503 
	C744.968140,176.029633 746.790039,176.811478 747.951294,177.784653 
	C748.631836,176.600815 749.796204,175.457520 749.899475,174.225250 
	C750.176880,170.916809 749.925781,167.567612 750.047485,164.240570 
	C750.086487,163.174881 750.634827,162.127853 750.950134,161.072281 
	C752.413818,162.016769 752.898621,162.844788 752.962219,163.703964 
	C753.678894,173.387604 754.328003,183.076202 755.001648,192.763046 
	C755.282776,196.805634 755.144958,201.087921 760.390991,202.737442 
	C761.238831,196.853333 762.127808,191.297638 762.742249,185.711731 
	C762.827515,184.936386 761.580933,183.993149 760.909241,183.161270 
	C760.055115,182.103500 759.158630,181.080017 758.280396,180.041718 
	C760.181702,179.738220 762.081421,179.245392 763.985229,179.228775 
	C764.699951,179.222534 765.424377,180.322510 766.312622,181.057327 
	C768.694885,179.011139 770.855591,177.155273 773.211731,175.131531 
	C777.795349,193.217697 775.772339,210.939270 774.959656,229.635666 
	C769.818237,229.092010 765.628235,228.648956 760.827820,228.141357 
	C761.613342,229.125153 762.471863,230.065857 763.177612,231.109848 
	C765.153015,234.031906 767.065247,236.996658 769.002441,239.944565 
z"/>
<path fill="#DEDEDF" opacity="1.000000" stroke="none" 
	d="
M769.288635,240.111298 
	C767.065247,236.996658 765.153015,234.031906 763.177612,231.109848 
	C762.471863,230.065857 761.613342,229.125153 760.827820,228.141357 
	C765.628235,228.648956 769.818237,229.092010 774.959656,229.635666 
	C775.772339,210.939270 777.795349,193.217697 773.211731,175.131531 
	C770.855591,177.155273 768.694885,179.011139 766.312622,181.057327 
	C765.424377,180.322510 764.699951,179.222534 763.985229,179.228775 
	C762.081421,179.245392 760.181702,179.738220 758.280396,180.041718 
	C759.158630,181.080017 760.055115,182.103500 760.909241,183.161270 
	C761.580933,183.993149 762.827515,184.936386 762.742249,185.711731 
	C762.127808,191.297638 761.238831,196.853333 760.390991,202.737442 
	C755.144958,201.087921 755.282776,196.805634 755.001648,192.763046 
	C754.328003,183.076202 753.678894,173.387604 752.962219,163.703964 
	C752.898621,162.844788 752.413818,162.016769 750.950134,161.072281 
	C750.634827,162.127853 750.086487,163.174881 750.047485,164.240570 
	C749.925781,167.567612 750.176880,170.916809 749.899475,174.225250 
	C749.796204,175.457520 748.631836,176.600815 747.951294,177.784653 
	C746.790039,176.811478 744.968140,176.029633 744.618286,174.821503 
	C744.056274,172.880814 744.467529,170.658264 744.467529,168.192169 
	C742.017761,166.834290 739.322449,165.340317 736.244812,163.634430 
	C729.347778,167.169449 732.183960,174.633240 730.129211,181.536072 
	C728.685608,176.015060 727.521057,171.561081 726.356445,167.107117 
	C725.735718,167.177200 725.114990,167.247299 724.494263,167.317398 
	C724.146240,170.163895 723.798279,173.010391 723.450317,175.856903 
	C722.872070,175.863251 722.293762,175.869598 721.715454,175.875961 
	C721.114990,168.024597 720.514465,160.173233 719.804260,150.887512 
	C716.555786,154.592865 714.196899,157.283463 711.814087,160.001389 
	C710.396912,157.285446 708.699585,154.032501 707.469788,150.392166 
	C717.291565,150.004608 726.645752,150.004440 736.005737,150.348694 
	C736.374512,151.295868 736.737610,151.898621 737.100708,152.501358 
	C737.400452,151.668976 737.700195,150.836624 738.466064,150.003128 
	C743.621521,150.002960 748.310730,150.003922 753.000000,150.435989 
	C753.782471,155.742386 754.565002,160.617676 755.347534,165.492981 
	C755.934998,165.513901 756.522461,165.534821 757.109863,165.555756 
	C757.739929,160.372330 758.369995,155.188919 759.458069,150.003906 
	C763.277405,150.002960 766.638733,150.003616 770.000000,150.004272 
	C769.580750,154.131256 771.677490,157.224289 773.292847,160.856140 
	C775.778992,166.445999 775.759338,173.164215 776.701477,179.418991 
	C777.007935,181.454102 776.997131,183.536972 777.131470,185.598007 
	C777.642944,185.851440 778.154480,186.104858 778.666016,186.358292 
	C780.181885,184.449860 781.697693,182.541443 783.280884,180.548279 
	C786.114929,182.290314 789.161987,184.163254 793.208801,186.650757 
	C794.185303,181.985718 795.180908,177.229294 796.176514,172.472855 
	C796.645630,172.419266 797.114685,172.365662 797.583740,172.312073 
	C801.745972,180.791473 801.184021,190.635010 803.392883,199.678467 
	C804.010803,199.717163 804.628662,199.755844 805.246582,199.794525 
	C806.161560,197.667725 807.400513,195.615387 807.910828,193.395569 
	C808.572815,190.515823 808.415283,187.448914 809.063416,184.564346 
	C809.565918,182.327728 811.072632,178.330017 811.600098,178.415192 
	C814.545593,178.890793 817.328857,180.370972 820.167603,181.507828 
	C820.027039,182.030533 819.886414,182.553238 819.745850,183.075958 
	C818.251892,183.816925 816.757996,184.557877 815.264099,185.298843 
	C815.248413,185.767303 815.232788,186.235764 815.217102,186.704239 
	C817.811035,187.136230 820.391785,187.807510 823.001587,187.951187 
	C828.702026,188.265015 829.817749,189.900589 827.407288,194.933090 
	C833.452148,199.532684 835.502563,208.365356 834.113342,215.404770 
	C833.178406,220.141937 833.466919,226.182159 835.764648,230.164276 
	C837.647583,233.427536 843.150208,234.958618 847.342041,236.407883 
	C850.141113,237.375610 853.476257,237.121231 856.530396,236.884155 
	C858.055847,236.765747 859.423523,235.260620 860.982666,234.747986 
	C862.523315,234.241486 864.667358,233.441971 865.753052,234.093506 
	C868.603333,235.803909 871.100159,238.148880 873.573425,240.419937 
	C874.581726,241.345856 875.165771,242.733719 876.251953,244.379761 
	C873.878113,244.831726 872.199158,245.151382 868.937683,245.772339 
	C871.183350,246.971848 872.233154,247.407593 873.137024,248.049011 
	C874.127808,248.752182 875.802979,249.682907 875.767639,250.449280 
	C875.514771,255.926987 879.549072,258.358978 883.081543,260.961700 
	C886.696045,263.624878 888.220825,266.124756 885.530334,270.541809 
	C884.240662,272.659119 883.218445,276.600800 884.305847,278.129669 
	C886.106812,280.661774 889.694153,282.000732 893.580994,280.412720 
	C892.976501,283.643951 892.429016,286.433563 896.048828,288.000580 
	C896.119873,291.039001 896.190979,294.077454 895.808105,297.557922 
	C894.902832,298.000000 894.451416,298.000000 893.750000,298.000000 
	C893.500000,298.000000 893.000000,298.000000 892.949402,297.666534 
	C891.932556,297.555389 890.966248,297.777679 889.657715,298.003113 
	C887.543579,298.337463 885.771790,298.668732 883.631226,299.008270 
	C882.592590,299.630646 881.922668,300.244751 881.252808,300.858887 
	C882.168518,301.239288 883.084229,301.619659 884.331604,302.169739 
	C887.775452,302.559662 890.887756,302.779816 894.338867,303.000000 
	C895.129517,302.999939 895.581360,302.999908 896.033142,302.999878 
	C896.117004,307.365326 896.200928,311.730774 895.798340,316.554993 
	C894.603577,317.647919 893.895264,318.282043 893.187012,318.916138 
	C894.137634,319.610870 895.088257,320.305603 896.038879,321.000305 
	C896.115356,321.449463 896.191833,321.898590 895.736572,322.664917 
	C891.136536,322.654724 887.068237,322.327362 883.195557,321.724854 
	C883.927429,320.299805 884.463745,319.149902 885.371948,318.005005 
	C887.633606,317.634216 890.844971,317.713165 891.160645,316.795746 
	C892.042603,314.232880 891.725891,311.257538 891.882202,308.445007 
	C888.691711,308.445007 885.501221,308.445007 881.709595,308.445007 
	C882.704346,312.594879 883.352173,315.297424 883.647949,317.960938 
	C881.180969,315.583282 879.065979,313.244720 876.700500,310.629089 
	C879.435303,308.913788 881.604248,307.553436 884.709534,305.605774 
	C880.953308,303.897797 878.033569,302.570160 873.830933,300.659210 
	C879.154114,298.489777 883.129028,296.869812 887.585449,295.053650 
	C885.682922,292.966522 884.320190,291.471558 882.911072,289.925690 
	C884.835876,287.717377 886.429688,285.888824 888.665466,283.323700 
	C885.345215,281.851868 882.710327,280.642334 880.042725,279.510071 
	C874.635254,277.214874 873.783752,274.964172 877.439636,270.219604 
	C880.116028,266.746246 878.766296,264.207275 876.303650,262.012299 
	C874.255981,260.187195 871.524231,259.153046 869.262756,257.534882 
	C868.045715,256.664032 866.114502,254.992783 866.340149,254.214722 
	C867.333984,250.787857 865.660156,250.177032 862.934082,249.779129 
	C860.028931,249.355103 857.093201,248.832123 854.318726,247.908310 
	C851.588196,246.999176 847.809631,248.313705 846.325745,244.268509 
	C846.111328,243.683777 843.935791,243.301407 842.916565,243.620422 
	C838.977661,244.853317 835.139587,246.408310 830.834351,248.002365 
	C830.208984,247.164536 829.083435,245.656570 827.178040,243.103897 
	C826.175354,250.761398 821.676697,248.781418 817.704590,247.933578 
	C816.769958,247.734085 815.983582,246.839615 815.129028,246.264847 
	C815.779602,245.467636 816.281616,244.428482 817.109558,243.920273 
	C819.255859,242.602783 821.545776,241.519119 823.778381,240.342087 
	C823.666687,239.901703 823.554993,239.461304 823.443298,239.020920 
	C819.747253,239.020920 816.006470,238.698456 812.380005,239.201065 
	C811.160034,239.370148 809.522217,241.529678 809.305664,242.965027 
	C808.727722,246.797043 808.583984,250.736511 808.696289,254.620895 
	C808.868042,260.562653 806.747925,266.872589 812.562134,271.910095 
	C814.477478,273.569519 814.555664,277.349335 815.744263,280.987061 
	C812.539978,280.513153 810.781067,280.253021 809.022156,279.992859 
	C799.443176,269.869904 789.864136,259.746948 780.147949,248.928131 
	C783.869934,239.537170 780.526550,231.137894 779.804199,222.630951 
	C779.345642,222.607040 778.887024,222.583130 778.428406,222.559219 
	C777.273987,229.737732 776.119568,236.916260 774.965088,244.094772 
	C773.168335,242.822525 771.371582,241.550278 769.288635,240.111298 
M795.000000,231.483826 
	C796.461914,236.429947 791.148254,242.222931 798.111633,247.902054 
	C798.838501,244.739029 799.577698,242.511017 799.815674,240.230698 
	C800.098755,237.518585 799.786438,234.747009 800.025696,232.027054 
	C800.479370,226.871399 801.708862,221.716003 801.544617,216.594833 
	C801.405457,212.254059 802.839905,207.383102 799.183594,203.508423 
	C798.779907,203.080719 799.577637,201.646866 799.590332,200.676666 
	C799.644653,196.534836 799.613464,192.391861 799.613464,188.249313 
	C798.981750,188.132385 798.350098,188.015472 797.718384,187.898544 
	C797.146423,189.696823 796.248840,191.464523 796.076416,193.300323 
	C795.797791,196.266556 796.257202,199.307129 795.922913,202.261765 
	C795.556030,205.504333 795.162598,208.992096 790.176880,208.382416 
	C789.284729,208.273331 787.718262,210.148865 787.203918,211.410095 
	C786.616821,212.849884 786.858521,214.627594 786.725403,216.459641 
	C785.184082,216.840027 783.796265,217.182526 782.524780,217.496307 
	C781.207825,226.173431 781.880249,227.432724 789.280701,229.625519 
	C789.844482,225.167786 790.400085,220.775070 790.955688,216.382355 
	C791.677124,216.420197 792.398499,216.458038 793.119934,216.495880 
	C793.746643,221.176834 794.373291,225.857803 795.000000,231.483826 
M808.136230,235.324051 
	C806.309387,233.206268 806.163940,231.337814 807.836792,228.758102 
	C808.519287,227.705627 806.969482,225.205612 806.435364,223.364166 
	C805.341003,223.727844 803.350281,223.983398 803.291321,224.471970 
	C802.719543,229.212234 801.513733,234.186859 802.433594,238.698074 
	C803.172913,242.323593 804.651001,245.437881 802.629822,249.024582 
	C802.328369,249.559479 802.948425,251.327042 803.357605,251.405777 
	C804.313416,251.589783 805.911621,251.431717 806.327576,250.802628 
	C807.194031,249.491989 808.337891,247.343658 807.820984,246.322388 
	C805.927185,242.580444 807.324585,239.339859 808.136230,235.324051 
M814.984863,213.893616 
	C814.989868,212.728699 815.260742,211.483673 814.939270,210.417145 
	C814.421021,208.697189 813.680603,206.975082 812.649597,205.527649 
	C812.394348,205.169342 809.877563,205.643356 809.745911,206.112381 
	C809.215210,208.003372 808.797852,210.108200 809.102295,212.011948 
	C809.662292,215.513763 810.761353,218.929382 811.793579,223.004105 
	C812.656799,222.727310 814.276489,222.207962 815.896179,221.688599 
	C815.410217,221.364883 814.924255,221.041168 814.438232,220.717453 
	C814.596252,218.711365 814.754333,216.705276 814.984863,213.893616 
M812.359192,202.940201 
	C814.127197,201.986908 817.494080,200.785995 817.391357,200.122421 
	C816.899658,196.947937 815.467651,193.919098 814.254883,190.515671 
	C808.313782,195.749786 807.621338,199.951233 812.359192,202.940201 
M806.006165,207.359619 
	C808.018860,205.784790 808.841003,203.928299 806.470215,202.170578 
	C805.715454,201.610962 804.192017,202.088196 803.020264,202.091019 
	C803.384155,203.753235 803.696045,205.430206 804.160278,207.063919 
	C804.242798,207.354355 804.957764,207.465057 806.006165,207.359619 
M810.074341,232.339493 
	C811.461914,235.203995 812.921692,233.597458 814.045593,232.224670 
	C814.448853,231.732101 814.025085,230.562424 813.978760,229.701767 
	C812.674194,230.333771 811.369690,230.965775 810.074341,232.339493 
M734.494446,160.760178 
	C735.870483,160.314728 737.246521,159.869278 738.622559,159.423828 
	C738.120361,158.681137 737.618225,157.938446 737.116028,157.195755 
	C736.141907,158.171860 735.167786,159.147949 734.494446,160.760178 
M823.882812,227.795807 
	C824.104614,227.118866 824.326416,226.441925 824.548279,225.764999 
	C822.540771,225.915604 820.533264,226.066223 818.525696,226.216827 
	C818.553162,226.722519 818.580566,227.228226 818.607971,227.733917 
	C820.115723,227.806244 821.623413,227.878555 823.882812,227.795807 
M780.660461,201.463867 
	C779.912476,201.438141 779.164551,201.412415 778.416565,201.386688 
	C778.529480,202.093246 778.642456,202.799805 778.755371,203.506378 
	C779.313416,203.024414 779.871521,202.542450 780.660461,201.463867 
M779.648254,188.441177 
	C779.196472,189.378281 778.744629,190.315384 778.292847,191.252487 
	C778.781494,191.398895 779.270142,191.545303 779.758789,191.691711 
	C779.920288,190.601608 780.081787,189.511505 779.648254,188.441177 
M822.230835,194.396255 
	C821.554016,194.875687 820.877197,195.355118 820.200378,195.834549 
	C820.505554,196.175919 820.810730,196.517288 821.115906,196.858643 
	C821.623596,196.177582 822.131348,195.496521 822.230835,194.396255 
M763.721313,168.115646 
	C763.529968,167.574936 763.338562,167.034225 763.147217,166.493515 
	C762.869690,166.620087 762.592224,166.746658 762.314697,166.873245 
	C762.639038,167.429825 762.963440,167.986420 763.721313,168.115646 
M779.286499,217.536285 
	C779.398071,216.961075 779.509644,216.385880 779.621216,215.810684 
	C779.212585,215.805511 778.804016,215.800354 778.395386,215.795197 
	C778.492737,216.373123 778.590088,216.951050 779.286499,217.536285 
M726.603943,154.799530 
	C726.212708,154.795319 725.821411,154.791122 725.430176,154.786911 
	C725.428650,154.949265 725.416199,155.252731 725.427185,155.253586 
	C725.816528,155.283676 726.208008,155.285431 726.603943,154.799530 
M763.396118,160.200409 
	C763.787354,160.204651 764.178650,160.208878 764.569946,160.213120 
	C764.571472,160.050751 764.583923,159.747269 764.572937,159.746429 
	C764.183594,159.716324 763.792053,159.714584 763.396118,160.200409 
M762.799500,173.396057 
	C762.795288,173.787323 762.791077,174.178574 762.786865,174.569839 
	C762.949219,174.571396 763.252625,174.583847 763.253479,174.572906 
	C763.283630,174.183594 763.285400,173.792099 762.799500,173.396057 
M782.396118,195.200424 
	C782.787354,195.204651 783.178650,195.208878 783.569885,195.213104 
	C783.571411,195.050751 783.583923,194.747299 783.572937,194.746445 
	C783.183594,194.716354 782.792114,194.714569 782.396118,195.200424 
M805.799622,218.395981 
	C805.795410,218.787262 805.791138,219.178528 805.786926,219.569809 
	C805.949280,219.571350 806.252747,219.583801 806.253540,219.572861 
	C806.283691,219.183563 806.285461,218.792068 805.799622,218.395981 
z"/>
<path fill="#DDDDDE" opacity="1.000000" stroke="none" 
	d="
M883.000000,322.000000 
	C887.068237,322.327362 891.136536,322.654724 895.618774,322.991150 
	C896.123962,329.307800 896.293945,335.615448 896.293579,341.923096 
	C896.291077,384.651581 896.252563,427.380096 896.083862,470.559143 
	C895.287842,469.882843 894.223694,468.818695 894.040283,467.619751 
	C890.631409,445.345032 885.130310,423.575745 877.877930,402.275146 
	C870.928833,381.865356 862.594055,362.026611 851.719971,343.334961 
	C851.057373,342.196014 850.621704,340.925079 850.401978,339.297119 
	C853.181946,335.477539 856.228333,335.702087 859.809448,336.977753 
	C862.044128,337.773804 864.592407,337.689331 867.454102,338.000000 
	C870.938782,338.000000 873.969421,338.000000 877.404236,337.991333 
	C880.428223,337.445862 883.047974,336.909058 885.667725,336.372223 
	C883.710449,334.442352 881.403442,334.103455 879.663025,332.926636 
	C877.581055,331.518860 875.983215,329.394867 874.175720,327.581085 
	C875.623718,326.518677 877.104248,325.496216 878.495544,324.364166 
	C878.819336,324.100739 878.839905,323.464630 879.345215,322.967468 
	C880.793640,322.623260 881.896790,322.311615 883.000000,322.000000 
z"/>
<path fill="#E7E7E7" opacity="1.000000" stroke="none" 
	d="
M449.379578,151.924225 
	C447.343109,151.302704 445.718140,150.102448 444.080627,150.085159 
	C429.931915,149.935745 415.780945,149.999329 401.630646,149.999466 
	C312.067627,150.000320 222.504593,150.001190 132.471634,149.648315 
	C132.001785,148.819321 132.001862,148.344040 132.001938,147.868774 
	C136.818085,147.765259 141.634140,147.574844 146.450378,147.570984 
	C251.360855,147.486954 356.271362,147.423676 461.625854,147.530396 
	C459.865051,148.800339 457.733734,150.101669 455.431610,150.925873 
	C453.660919,151.559814 451.675323,151.593399 449.379578,151.924225 
z"/>
<path fill="#7D7D7D" opacity="1.000000" stroke="none" 
	d="
M961.809998,980.240845 
	C956.312134,976.149353 951.042786,972.334412 945.512634,968.330566 
	C956.904724,964.894714 964.906860,957.015747 968.571716,944.428467 
	C980.001526,965.795166 980.946411,962.258179 993.673706,969.242615 
	C981.247986,973.180420 973.034851,980.853027 969.468750,993.599548 
	C966.679626,988.688843 964.359070,984.603149 961.809998,980.240845 
z"/>
<path fill="#E6E7E6" opacity="1.000000" stroke="none" 
	d="
M753.000000,150.004883 
	C748.310730,150.003922 743.621521,150.002960 738.132812,150.001770 
	C736.888916,150.002441 736.444458,150.003357 736.000000,150.004272 
	C726.645752,150.004440 717.291565,150.004608 707.468628,150.007874 
	C670.087158,150.006027 633.174316,150.022049 596.261719,149.930115 
	C594.535034,149.925812 592.810730,148.958710 591.042969,148.070557 
	C606.474182,147.626541 621.947693,147.488937 637.421204,147.487900 
	C722.191101,147.482147 806.960938,147.501755 891.730774,147.590134 
	C893.278442,147.591736 894.825012,148.550797 896.273315,149.536774 
	C854.428711,150.007370 812.683044,150.004318 770.468628,150.002777 
	C766.638733,150.003616 763.277405,150.002960 759.029602,150.002151 
	C756.428711,150.002960 754.714355,150.003922 753.000000,150.004883 
z"/>
<path fill="#D4D5D5" opacity="1.000000" stroke="none" 
	d="
M129.687592,595.338806 
	C131.062653,594.787292 132.294418,594.619263 132.946594,594.530334 
	C132.612335,598.569153 132.026520,602.361694 132.024414,606.154419 
	C131.974472,695.857056 131.997116,785.559753 131.922470,875.262329 
	C131.920898,877.153015 130.929123,879.042847 130.028625,880.987061 
	C129.566498,865.556519 129.395767,850.072021 129.397095,834.587463 
	C129.403336,761.758301 129.455704,688.929199 129.495148,616.100037 
	C129.498825,609.307434 129.527313,602.514893 129.687592,595.338806 
z"/>
<path fill="#EAE9EA" opacity="1.000000" stroke="none" 
	d="
M131.532913,147.751419 
	C132.001862,148.344040 132.001785,148.819321 132.003281,149.651184 
	C132.002914,218.042801 132.000977,286.077820 131.718765,354.574707 
	C130.883026,354.999725 130.327545,354.962860 129.772095,354.926025 
	C129.668884,338.629913 129.481613,322.333862 129.478073,306.037720 
	C129.466949,254.949310 129.510452,203.860855 129.619675,152.772614 
	C129.623337,151.058746 130.561401,149.346863 131.532913,147.751419 
z"/>
<path fill="#D4D5D5" opacity="1.000000" stroke="none" 
	d="
M196.466492,894.276367 
	C197.759781,893.441284 199.506058,892.107483 201.255966,892.102722 
	C243.507416,891.987244 285.759277,892.013794 328.011047,892.014648 
	C333.774109,892.014771 339.537323,891.988770 345.300201,892.021851 
	C351.148529,892.055359 356.735443,891.603882 359.668060,883.516968 
	C361.854462,893.264648 368.489105,891.982361 374.494049,892.003296 
	C383.975616,892.036316 393.458282,891.947510 402.938324,892.072449 
	C404.574158,892.094055 406.199402,892.919617 407.907410,893.782532 
	C405.501923,894.281921 403.018585,894.452026 400.535248,894.451721 
	C332.663879,894.443970 264.792511,894.419006 196.466492,894.276367 
z"/>
<path fill="#D4D5D5" opacity="1.000000" stroke="none" 
	d="
M608.470825,894.366150 
	C609.577881,893.492493 611.130432,892.121826 612.696045,892.106750 
	C629.012207,891.949402 645.334473,892.232666 661.647034,891.943909 
	C676.522644,891.680603 691.387024,892.201782 706.258850,892.047729 
	C721.575867,891.889038 736.895752,892.012268 752.214417,892.012207 
	C767.366577,892.012146 782.518677,892.012390 797.670837,892.012085 
	C804.585754,892.011902 811.502136,891.934448 818.414307,892.070679 
	C819.893188,892.099854 821.356750,892.902161 822.908569,893.753906 
	C821.670105,894.254822 820.350403,894.432922 819.030640,894.433533 
	C748.994568,894.464600 678.958557,894.480713 608.470825,894.366150 
z"/>
<path fill="#EAE9EA" opacity="1.000000" stroke="none" 
	d="
M131.997559,370.956055 
	C131.997238,393.332764 131.996918,415.709473 131.722366,438.552307 
	C130.897736,438.988800 130.347321,438.959137 129.796921,438.929474 
	C129.710266,416.609589 129.623611,394.289734 129.937103,371.508667 
	C130.890671,371.016998 131.444122,370.986511 131.997559,370.956055 
z"/>
<path fill="#DFDFDF" opacity="1.000000" stroke="none" 
	d="
M896.166870,287.544678 
	C892.429016,286.433563 892.976501,283.643951 893.959167,280.369324 
	C894.000000,278.611115 894.000000,277.222198 894.000000,275.083313 
	C894.000000,273.888885 894.000000,273.444458 894.000000,273.000000 
	C894.000000,271.933319 894.000000,270.866669 894.000000,268.950012 
	C894.000000,265.400024 894.000000,262.700012 894.000000,260.000000 
	C894.000000,259.250000 894.000000,258.500000 894.000000,256.907288 
	C894.000366,251.958893 893.838989,247.843079 894.095764,243.753510 
	C894.176575,242.465912 895.378723,241.248718 896.067627,239.999298 
	C896.140015,255.695801 896.212463,271.392303 896.166870,287.544678 
z"/>
<path fill="#D4D5D5" opacity="1.000000" stroke="none" 
	d="
M584.553955,889.108154 
	C585.283325,890.572083 585.601318,892.022156 585.950195,893.849060 
	C576.543152,894.348083 567.105286,894.470215 557.276489,894.417480 
	C558.127869,893.523376 559.303955,892.352905 560.623352,892.159424 
	C568.444641,891.012085 576.299194,890.091248 584.553955,889.108154 
z"/>
<path fill="#D4D5D5" opacity="1.000000" stroke="none" 
	d="
M133.835052,582.546387 
	C132.783417,582.966553 131.708908,582.977356 130.228516,582.987610 
	C129.727966,576.892700 129.633316,570.798401 129.730804,564.344482 
	C130.918198,566.952026 132.180344,569.861755 132.833237,572.902344 
	C133.479507,575.911865 133.511032,579.053406 133.835052,582.546387 
z"/>
<path fill="#D4D5D5" opacity="1.000000" stroke="none" 
	d="
M441.468811,894.326538 
	C441.348450,892.758240 441.679810,891.321167 442.028992,889.519897 
	C446.762207,889.809082 451.503479,890.323242 456.178986,891.191589 
	C457.812653,891.495056 459.284210,892.671448 460.866791,893.822632 
	C454.576050,894.283203 448.248291,894.370422 441.468811,894.326538 
z"/>
<path fill="#DEDEDF" opacity="1.000000" stroke="none" 
	d="
M896.188660,239.657379 
	C895.378723,241.248718 894.176575,242.465912 894.095764,243.753510 
	C893.838989,247.843079 894.000366,251.958893 894.000000,256.532288 
	C893.335693,256.047699 892.076294,255.078995 892.102051,254.145767 
	C892.292053,247.263962 892.689331,240.385605 893.196960,233.519135 
	C893.237793,232.968201 894.594299,232.514557 895.721680,232.007538 
	C896.172485,234.438049 896.241089,236.876755 896.188660,239.657379 
z"/>
<path fill="#D4D5D5" opacity="1.000000" stroke="none" 
	d="
M131.993195,370.526123 
	C131.444122,370.986511 130.890671,371.016998 130.060318,371.061920 
	C129.673447,365.991119 129.563492,360.905853 129.612808,355.373291 
	C130.327545,354.962860 130.883026,354.999725 131.716614,355.046967 
	C131.992325,356.094910 131.989899,357.132477 131.719803,358.797607 
	C131.633591,360.967438 131.815048,362.509644 131.996521,364.051849 
	C131.993958,366.066650 131.991394,368.081421 131.993195,370.526123 
z"/>
<path fill="#D4D5D5" opacity="1.000000" stroke="none" 
	d="
M129.640472,439.357208 
	C130.347321,438.959137 130.897736,438.988800 131.723755,439.022644 
	C131.536713,442.641052 131.074051,446.255280 130.208374,449.961365 
	C129.698242,446.630493 129.591125,443.207703 129.640472,439.357208 
z"/>
<path fill="#D4D5D5" opacity="1.000000" stroke="none" 
	d="
M129.535736,892.368896 
	C133.390442,892.432373 137.111298,892.902466 140.909698,893.771973 
	C137.125458,893.706055 133.263657,893.240784 129.535736,892.368896 
z"/>
<path fill="#D4D5D5" opacity="1.000000" stroke="none" 
	d="
M129.729065,552.329529 
	C130.084412,555.142090 130.290909,558.313965 130.195541,561.757812 
	C129.789185,558.916138 129.684692,555.802490 129.729065,552.329529 
z"/>
<path fill="#D4D5D5" opacity="1.000000" stroke="none" 
	d="
M129.797394,478.323242 
	C130.121811,480.489990 130.284668,482.989746 130.166031,485.761169 
	C129.801636,483.573975 129.718735,481.115112 129.797394,478.323242 
z"/>
<path fill="#D4D5D5" opacity="1.000000" stroke="none" 
	d="
M129.514816,886.355713 
	C130.401764,886.449890 131.810242,887.015137 131.764099,887.410706 
	C131.659515,888.307373 130.838394,889.120483 129.985901,890.004272 
	C129.567429,888.943848 129.471680,887.846741 129.514816,886.355713 
z"/>
<path fill="#DFDFDF" opacity="1.000000" stroke="none" 
	d="
M896.158936,320.611145 
	C895.088257,320.305603 894.137634,319.610870 893.187012,318.916138 
	C893.895264,318.282043 894.603577,317.647919 895.679810,317.006775 
	C896.124817,318.073822 896.201904,319.147888 896.158936,320.611145 
z"/>
<path fill="#D4D5D5" opacity="1.000000" stroke="none" 
	d="
M891.442871,894.277710 
	C892.449097,893.443237 893.887573,892.731323 895.738464,892.015320 
	C896.510559,896.002319 893.441589,893.856628 891.442871,894.277710 
z"/>
<path fill="#DDDDDE" opacity="1.000000" stroke="none" 
	d="
M894.000000,298.000000 
	C894.451416,298.000000 894.902832,298.000000 895.692871,298.000061 
	C896.106079,299.395508 896.180725,300.790894 896.144287,302.593079 
	C895.581360,302.999908 895.129517,302.999939 894.338867,302.583344 
	C894.000000,300.777802 894.000000,299.388885 894.000000,298.000000 
z"/>
<path fill="#7FB53D" opacity="1.000000" stroke="none" 
	d="
M559.838135,599.807251 
	C540.648010,607.186340 523.007141,616.603943 506.541229,629.955566 
	C506.541229,614.246277 506.539124,599.686829 506.542084,585.127380 
	C506.543640,577.470215 506.275299,569.797424 506.705231,562.164124 
	C506.865051,559.327271 507.907410,555.797607 509.843018,553.918457 
	C528.589294,535.719421 547.620605,517.814392 566.551758,499.805603 
	C585.728699,481.563049 604.958191,463.347778 619.945618,441.302063 
	C627.800171,429.748596 634.642700,417.626953 638.620361,404.118134 
	C647.991333,406.608246 651.378052,411.660126 651.319031,420.720367 
	C651.180359,442.017914 651.560242,463.318207 651.584106,484.617584 
	C651.617737,514.571960 651.523438,544.526489 651.459839,574.480896 
	C651.457458,575.623779 651.205444,576.766113 650.992249,578.561157 
	C619.844543,581.562439 589.285095,587.547791 559.838135,599.807251 
z"/>
<path fill="#2471AD" opacity="1.000000" stroke="none" 
	d="
M495.845703,440.227234 
	C495.862946,447.695923 495.722351,454.699829 495.974060,461.689606 
	C496.096039,465.076660 494.820557,466.555664 491.722076,467.902283 
	C459.274414,482.004333 426.329102,495.164612 396.055054,513.706604 
	C383.906525,521.147156 372.718597,530.156799 361.102356,538.464783 
	C360.037018,539.226746 359.036682,540.079712 357.132019,541.578247 
	C357.132019,489.475922 357.132019,438.217407 357.132019,386.839935 
	C364.754211,386.839935 372.220703,386.380249 379.613892,386.921539 
	C407.746124,388.981110 435.061218,394.837036 460.075317,408.231873 
	C471.121918,414.147247 481.038025,422.193970 491.369598,429.413055 
	C494.857147,431.849915 496.645538,435.317780 495.845703,440.227234 
z"/>
<path fill="#80B541" opacity="1.000000" stroke="none" 
	d="
M438.018127,532.980957 
	C422.000549,543.341370 407.513123,555.005432 394.519379,568.513489 
	C371.752838,592.181335 357.588440,619.541077 358.063812,654.900330 
	C352.734436,648.944397 347.859131,644.301208 343.967865,638.943359 
	C339.098022,632.238220 334.656097,625.150513 330.730835,617.850769 
	C326.613098,610.193115 328.805817,602.206055 331.508881,594.619141 
	C337.770447,577.044189 349.583374,563.359619 363.107391,551.047058 
	C385.853607,530.338318 412.193817,515.154785 439.917877,502.323334 
	C468.885712,488.916290 498.270630,476.402130 527.126953,462.764862 
	C551.522644,451.235657 575.084167,438.086731 596.052490,420.834625 
	C600.286560,417.350922 603.982483,413.217682 608.169678,409.670868 
	C611.606628,406.759613 615.404602,404.274536 619.528687,402.135406 
	C616.612244,411.039032 610.754944,417.799530 604.830750,424.393250 
	C583.641907,447.976685 557.499451,464.956909 530.079834,480.291229 
	C500.627808,496.762177 471.375854,513.591003 442.048584,530.284607 
	C440.751556,531.022888 439.573456,531.970093 438.018127,532.980957 
z"/>
<path fill="#2971AC" opacity="1.000000" stroke="none" 
	d="
M662.324341,549.000000 
	C662.356323,504.336304 662.446411,460.172455 662.333435,416.009125 
	C662.321411,411.311676 663.344360,409.110809 668.465393,410.107697 
	C671.710876,410.739410 675.071655,410.764923 678.375000,411.116516 
	C682.428101,411.547943 683.821228,413.747162 683.800049,417.875122 
	C683.663086,444.539185 683.750732,471.204468 683.772827,497.869324 
	C683.802917,534.200256 683.840210,570.531250 683.874146,606.862183 
	C683.875671,608.499023 683.874390,610.135864 683.874390,612.211487 
	C681.669434,612.384583 679.892456,612.547058 678.112244,612.660400 
	C654.870728,614.139648 631.480835,614.451111 608.425171,617.387451 
	C581.191895,620.856018 554.703491,628.240845 529.420715,639.303894 
	C527.610413,640.096008 525.763794,641.753296 524.848267,643.490234 
	C518.102966,656.287964 497.176666,659.701843 484.857086,650.146545 
	C477.601044,644.518677 477.915649,635.605652 475.986237,627.749268 
	C476.323273,627.443787 476.660278,627.138306 476.997314,626.832886 
	C481.299957,629.531921 485.627197,632.192993 489.892181,634.950256 
	C491.422119,635.939392 492.786011,637.182312 494.253021,638.272522 
	C499.655853,642.287720 503.162170,642.731567 508.212982,638.573181 
	C527.363220,622.806580 550.054199,614.195190 573.052551,606.357666 
	C600.273315,597.081238 628.460571,592.258118 657.080200,590.063354 
	C661.237366,589.744568 662.438599,588.583923 662.356689,584.495972 
	C662.123047,572.835144 662.305176,561.165894 662.324341,549.000000 
z"/>
<path fill="#DFDFDF" opacity="1.000000" stroke="none" 
	d="
M883.195557,321.724823 
	C881.896790,322.311615 880.793640,322.623260 878.935547,322.968445 
	C877.518372,323.043701 876.826721,322.975494 876.198242,323.143616 
	C866.156555,325.829712 856.158630,328.955322 846.148010,322.766022 
	C845.329163,322.259766 843.364685,323.606537 841.932495,324.092285 
	C838.602356,319.661957 835.268494,315.234497 831.943054,310.800659 
	C824.393738,300.735138 816.848633,290.666504 809.161987,280.295959 
	C810.781067,280.253021 812.539978,280.513153 815.744263,280.987061 
	C814.555664,277.349335 814.477478,273.569519 812.562134,271.910095 
	C806.747925,266.872589 808.868042,260.562653 808.696289,254.620895 
	C808.583984,250.736511 808.727722,246.797043 809.305664,242.965027 
	C809.522217,241.529678 811.160034,239.370148 812.380005,239.201065 
	C816.006470,238.698456 819.747253,239.020920 823.443298,239.020920 
	C823.554993,239.461304 823.666687,239.901703 823.778381,240.342087 
	C821.545776,241.519119 819.255859,242.602783 817.109558,243.920273 
	C816.281616,244.428482 815.779602,245.467636 815.129028,246.264847 
	C815.983582,246.839615 816.769958,247.734085 817.704590,247.933578 
	C821.676697,248.781418 826.175354,250.761398 827.178040,243.103897 
	C829.083435,245.656570 830.208984,247.164536 830.834351,248.002365 
	C835.139587,246.408310 838.977661,244.853317 842.916565,243.620422 
	C843.935791,243.301407 846.111328,243.683777 846.325745,244.268509 
	C847.809631,248.313705 851.588196,246.999176 854.318726,247.908310 
	C857.093201,248.832123 860.028931,249.355103 862.934082,249.779129 
	C865.660156,250.177032 867.333984,250.787857 866.340149,254.214722 
	C866.114502,254.992783 868.045715,256.664032 869.262756,257.534882 
	C871.524231,259.153046 874.255981,260.187195 876.303650,262.012299 
	C878.766296,264.207275 880.116028,266.746246 877.439636,270.219604 
	C873.783752,274.964172 874.635254,277.214874 880.042725,279.510071 
	C882.710327,280.642334 885.345215,281.851868 888.665466,283.323700 
	C886.429688,285.888824 884.835876,287.717377 882.911072,289.925690 
	C884.320190,291.471558 885.682922,292.966522 887.585449,295.053650 
	C883.129028,296.869812 879.154114,298.489777 873.830933,300.659210 
	C878.033569,302.570160 880.953308,303.897797 884.709534,305.605774 
	C881.604248,307.553436 879.435303,308.913788 876.700500,310.629089 
	C879.065979,313.244720 881.180969,315.583282 883.897949,317.960938 
	C884.500000,318.000000 885.000000,318.000000 885.000000,318.000000 
	C884.463745,319.149902 883.927429,320.299805 883.195557,321.724823 
z"/>
<path fill="#296EAA" opacity="1.000000" stroke="none" 
	d="
M345.895264,431.000519 
	C345.922180,470.818420 345.957886,510.136475 345.930450,549.454529 
	C345.929352,551.029724 345.866699,553.128052 344.923218,554.097107 
	C336.991486,562.243896 330.646393,571.424377 325.139984,581.860352 
	C325.024780,579.520508 324.809479,577.180603 324.809143,574.840759 
	C324.802338,524.193542 324.788513,473.546295 324.853149,422.899139 
	C324.869995,409.699127 322.557678,411.588013 336.464355,410.661713 
	C347.771851,409.908569 345.624847,409.383331 345.803864,419.505127 
	C345.868652,423.169708 345.865204,426.835449 345.895264,431.000519 
z"/>
<path fill="#2873AE" opacity="1.000000" stroke="none" 
	d="
M647.322266,280.742096 
	C661.288635,286.833344 674.894592,292.796509 689.651489,299.264099 
	C670.205200,307.319122 652.327148,315.367767 633.901123,321.861267 
	C629.787109,323.311066 623.599548,319.678833 618.628967,317.720428 
	C609.709595,314.206207 600.989136,310.187042 591.457275,306.063843 
	C589.870239,318.724762 592.983154,330.407135 594.397156,342.619385 
	C590.880798,342.619385 587.843140,342.619385 584.227112,342.619385 
	C584.636719,339.721252 584.628357,336.854218 585.508972,334.292786 
	C586.602905,331.110779 588.407837,328.210968 585.346497,325.154358 
	C585.011963,324.820343 584.975647,323.684448 585.279968,323.290070 
	C589.223450,318.179169 586.431763,312.356415 586.927429,306.905304 
	C587.034485,305.728394 585.312134,303.935272 583.998840,303.175781 
	C581.506775,301.734589 578.701172,300.835693 574.754944,299.177612 
	C582.024414,296.027191 588.052673,293.397339 594.094788,290.799835 
	C605.851257,285.745758 617.578247,280.618866 629.416931,275.764771 
	C631.185669,275.039581 633.669739,275.104462 635.516296,275.721497 
	C639.438477,277.032104 643.158813,278.946899 647.322266,280.742096 
z"/>
<path fill="#2772AF" opacity="1.000000" stroke="none" 
	d="
M575.497559,394.529541 
	C586.164673,392.057770 596.457275,389.734009 606.749878,387.410248 
	C607.060059,387.884674 607.370300,388.359100 607.680481,388.833527 
	C606.128723,391.467285 604.803223,394.269409 602.988770,396.707672 
	C590.520691,413.462219 573.868042,425.352722 556.044739,435.507019 
	C540.767395,444.210907 524.846924,451.786041 509.203705,459.846497 
	C508.495239,460.211487 507.716064,460.439240 506.158478,461.047974 
	C506.158478,451.830261 505.976410,443.120544 506.324188,434.432037 
	C506.387756,432.843750 508.445892,431.169891 509.859924,429.826752 
	C523.197021,417.158508 538.896545,408.245209 555.834656,401.429718 
	C562.147644,398.889496 568.686890,396.911804 575.497559,394.529541 
z"/>
<path fill="#84B848" opacity="1.000000" stroke="none" 
	d="
M607.503174,365.054016 
	C609.397034,364.879028 610.936584,364.427917 612.370850,364.651855 
	C622.600403,366.249146 627.024841,360.550354 629.208984,351.689056 
	C629.700623,349.694336 630.862366,347.864807 632.994202,345.859161 
	C634.593750,349.869598 636.495178,353.790924 637.712646,357.914215 
	C639.081604,362.550934 641.451782,364.700623 646.565430,364.384094 
	C650.760925,364.124390 655.025635,364.982788 660.644348,365.464203 
	C656.061218,369.383148 652.630493,372.642303 648.856140,375.437531 
	C646.015808,377.541016 645.266541,379.927734 646.038818,383.198395 
	C647.136353,387.846527 648.077271,392.531647 649.415710,398.732819 
	C644.363770,395.536163 640.274170,393.278625 636.573547,390.502594 
	C633.601868,388.273376 631.298889,387.994873 628.206421,390.358337 
	C624.320496,393.328278 620.001221,395.731079 614.950684,397.611969 
	C616.172668,392.834381 617.189697,387.991486 618.684875,383.300964 
	C619.776855,379.874908 618.898071,377.606934 616.089172,375.592224 
	C612.848267,373.267700 609.720398,370.773621 606.664795,368.208557 
	C605.458130,367.195587 603.575623,365.644806 607.503174,365.054016 
z"/>
<path fill="#2972AE" opacity="1.000000" stroke="none" 
	d="
M657.814026,317.883881 
	C659.552856,317.275452 660.937256,316.815979 663.055603,316.112915 
	C663.055603,321.256165 663.570618,325.929596 662.830078,330.394775 
	C662.479858,332.506622 660.091003,334.961975 658.000488,335.989502 
	C646.992310,341.399902 635.262024,343.276978 623.186096,340.915894 
	C617.569702,339.817810 612.094360,337.785461 606.717712,335.747406 
	C602.933350,334.312958 601.331177,331.201416 601.696472,326.984558 
	C601.978333,323.731537 601.752686,320.434570 601.752686,316.110931 
	C609.166321,319.161652 616.281250,321.444702 622.749207,324.928711 
	C629.490662,328.559998 635.422546,328.212769 641.942566,324.720245 
	C646.889526,322.070343 652.271362,320.232208 657.814026,317.883881 
z"/>
<path fill="#2973AE" opacity="1.000000" stroke="none" 
	d="
M476.753540,605.700317 
	C480.223053,592.605042 487.198669,581.909546 495.926086,571.928162 
	C495.926086,590.776367 495.926086,609.624573 495.926086,628.950073 
	C489.381012,624.289978 482.675659,620.126648 476.863281,614.959045 
	C475.361176,613.623535 476.660553,609.137085 476.753540,605.700317 
z"/>
<path fill="#DEDEDF" opacity="1.000000" stroke="none" 
	d="
M841.975708,324.423462 
	C843.364685,323.606537 845.329163,322.259766 846.148010,322.766022 
	C856.158630,328.955322 866.156555,325.829712 876.198242,323.143616 
	C876.826721,322.975494 877.518372,323.043701 878.590332,323.000977 
	C878.839905,323.464630 878.819336,324.100739 878.495544,324.364166 
	C877.104248,325.496216 875.623718,326.518677 874.175720,327.581085 
	C875.983215,329.394867 877.581055,331.518860 879.663025,332.926636 
	C881.403442,334.103455 883.710449,334.442352 885.667725,336.372223 
	C883.047974,336.909058 880.428223,337.445862 877.402710,337.591003 
	C876.448792,336.130127 876.122498,334.369202 875.314453,334.109985 
	C871.551392,332.902832 867.676697,331.991180 863.785156,331.288147 
	C863.134521,331.170593 861.783691,332.480835 861.527588,333.356842 
	C861.298340,334.140472 861.862122,335.627197 862.557312,336.108276 
	C863.853760,337.005402 865.499573,337.397644 867.000000,338.000000 
	C864.592407,337.689331 862.044128,337.773804 859.809448,336.977753 
	C856.228333,335.702087 853.181946,335.477539 850.369263,338.938965 
	C848.440735,336.542145 846.866516,334.085022 845.557007,331.311707 
	C849.792847,329.846344 849.850769,329.639465 847.122314,326.453461 
	C846.083313,327.303558 845.046814,328.151672 844.010254,328.999817 
	C843.346497,327.584747 842.682678,326.169678 841.975708,324.423462 
z"/>
<path fill="#8EBF56" opacity="1.000000" stroke="none" 
	d="
M414.082520,650.877563 
	C411.941803,652.021118 410.130035,652.994263 408.318237,653.967346 
	C408.051575,653.680786 407.784943,653.394287 407.518280,653.107727 
	C410.979218,647.330933 414.440155,641.554138 418.648773,634.529297 
	C421.136200,641.666504 423.181824,647.536133 425.116638,653.087830 
	C421.313141,652.241943 417.862274,651.474487 414.082520,650.877563 
z"/>
<path fill="#DDDDDD" opacity="1.000000" stroke="none" 
	d="
M775.106079,244.389435 
	C776.119568,236.916260 777.273987,229.737732 778.428406,222.559219 
	C778.887024,222.583130 779.345642,222.607040 779.804199,222.630951 
	C780.526550,231.137894 783.869934,239.537170 779.999756,248.631424 
	C778.408203,247.581757 776.827637,246.132919 775.106079,244.389435 
z"/>
<path fill="#95C361" opacity="1.000000" stroke="none" 
	d="
M433.157104,596.881165 
	C430.348175,595.478516 427.724426,594.412048 424.354218,593.042175 
	C427.835938,589.851807 431.743469,586.271240 436.511230,581.902466 
	C436.511230,588.798584 436.511230,594.216431 436.511230,599.634277 
	C436.148804,599.761475 435.786377,599.888672 435.423950,600.015869 
	C434.730042,599.083069 434.036163,598.150208 433.157104,596.881165 
z"/>
<path fill="#98C467" opacity="1.000000" stroke="none" 
	d="
M453.798279,551.461060 
	C457.897644,549.437622 461.770691,547.667175 467.152740,545.206909 
	C465.451477,551.074585 464.179810,555.460571 462.995514,559.545166 
	C459.485413,556.628235 456.528717,554.171143 453.798279,551.461060 
z"/>
<path fill="#A4CC78" opacity="1.000000" stroke="none" 
	d="
M501.216003,523.165344 
	C499.841736,526.191711 498.624756,528.868408 497.475891,531.395264 
	C495.266998,528.462341 493.177521,525.687927 490.669586,522.357910 
	C493.284851,521.711914 496.679596,520.811523 500.121033,520.156738 
	C500.361145,520.111023 500.947784,521.886902 501.216003,523.165344 
z"/>
<path fill="#A4CC78" opacity="1.000000" stroke="none" 
	d="
M530.986328,506.343170 
	C529.172180,503.649902 527.690857,501.048767 525.892456,497.890869 
	C528.291138,497.462341 531.353760,496.915222 536.067383,496.073151 
	C534.151855,500.253479 532.735535,503.344391 530.986328,506.343170 
z"/>
<path fill="#A4CC78" opacity="1.000000" stroke="none" 
	d="
M562.152466,482.874542 
	C560.185364,480.868347 558.570618,478.982941 556.488220,476.551392 
	C559.082703,475.720001 561.981567,474.791046 564.880493,473.862091 
	C565.275085,474.231049 565.669678,474.600006 566.064331,474.968964 
	C564.877869,477.644409 563.691406,480.319855 562.152466,482.874542 
z"/>
<path fill="#A4CC78" opacity="1.000000" stroke="none" 
	d="
M589.565674,460.204651 
	C587.069641,459.546295 584.751221,458.540222 581.620544,457.181610 
	C584.659790,455.589935 586.866211,454.434357 589.743347,452.927582 
	C589.743347,455.781158 589.743347,457.819031 589.565674,460.204651 
z"/>
<path fill="#A4CC78" opacity="1.000000" stroke="none" 
	d="
M619.540405,414.350220 
	C620.739624,412.382263 621.788513,410.720215 622.837402,409.058136 
	C623.548157,409.496124 624.258972,409.934113 624.969727,410.372101 
	C624.969727,412.983521 624.969727,415.594971 624.969727,419.286713 
	C622.463745,417.206970 620.926941,415.931519 619.540405,414.350220 
z"/>
<path fill="#A4CC78" opacity="1.000000" stroke="none" 
	d="
M610.191406,438.332703 
	C608.388611,437.671906 606.940369,436.957886 604.764160,435.884949 
	C606.507874,434.283295 608.148499,432.776306 611.008240,430.149536 
	C610.794739,433.904388 610.670349,436.091919 610.191406,438.332703 
z"/>
<path fill="#DDDDDE" opacity="1.000000" stroke="none" 
	d="
M844.110107,329.263519 
	C845.046814,328.151672 846.083313,327.303558 847.122314,326.453461 
	C849.850769,329.639465 849.792847,329.846344 845.434937,330.996521 
	C844.768799,330.507416 844.489380,330.017334 844.110107,329.263519 
z"/>
<path fill="#EAE9EA" opacity="1.000000" stroke="none" 
	d="
M131.997879,363.626404 
	C131.815048,362.509644 131.633591,360.967438 131.724518,359.187927 
	C131.997711,360.367401 131.998474,361.784180 131.997879,363.626404 
z"/>
<path fill="#DEDEDF" opacity="1.000000" stroke="none" 
	d="
M893.641907,260.063812 
	C894.000000,262.700012 894.000000,265.400024 894.000000,268.550018 
	C889.190430,266.411499 890.906616,263.296234 893.641907,260.063812 
z"/>
<path fill="#DEDEDF" opacity="1.000000" stroke="none" 
	d="
M782.611938,175.537628 
	C783.058167,175.652908 783.331604,175.934021 783.583984,176.232880 
	C783.590393,176.240524 783.364929,176.443893 783.247620,176.556000 
	C782.977234,176.272598 782.706848,175.989182 782.611938,175.537628 
z"/>
<path fill="#DEDEDF" opacity="1.000000" stroke="none" 
	d="
M893.702087,273.039062 
	C894.000000,273.444458 894.000000,273.888885 894.000000,274.666687 
	C893.483337,274.766235 892.966736,274.532440 892.450073,274.298645 
	C892.768127,273.891815 893.086182,273.484985 893.702087,273.039062 
z"/>
<path fill="#DFDFDF" opacity="1.000000" stroke="none" 
	d="
M795.000000,231.011292 
	C794.373291,225.857803 793.746643,221.176834 793.119934,216.495880 
	C792.398499,216.458038 791.677124,216.420197 790.955688,216.382355 
	C790.400085,220.775070 789.844482,225.167786 789.280701,229.625519 
	C781.880249,227.432724 781.207825,226.173431 782.524780,217.496307 
	C783.796265,217.182526 785.184082,216.840027 786.725403,216.459641 
	C786.858521,214.627594 786.616821,212.849884 787.203918,211.410095 
	C787.718262,210.148865 789.284729,208.273331 790.176880,208.382416 
	C795.162598,208.992096 795.556030,205.504333 795.922913,202.261765 
	C796.257202,199.307129 795.797791,196.266556 796.076416,193.300323 
	C796.248840,191.464523 797.146423,189.696823 797.718384,187.898544 
	C798.350098,188.015472 798.981750,188.132385 799.613464,188.249313 
	C799.613464,192.391861 799.644653,196.534836 799.590332,200.676666 
	C799.577637,201.646866 798.779907,203.080719 799.183594,203.508423 
	C802.839905,207.383102 801.405457,212.254059 801.544617,216.594833 
	C801.708862,221.716003 800.479370,226.871399 800.025696,232.027054 
	C799.786438,234.747009 800.098755,237.518585 799.815674,240.230698 
	C799.577698,242.511017 798.838501,244.739029 798.111633,247.902054 
	C791.148254,242.222931 796.461914,236.429947 795.000000,231.011292 
z"/>
<path fill="#DDDDDD" opacity="1.000000" stroke="none" 
	d="
M808.293335,235.639526 
	C807.324585,239.339859 805.927185,242.580444 807.820984,246.322388 
	C808.337891,247.343658 807.194031,249.491989 806.327576,250.802628 
	C805.911621,251.431717 804.313416,251.589783 803.357605,251.405777 
	C802.948425,251.327042 802.328369,249.559479 802.629822,249.024582 
	C804.651001,245.437881 803.172913,242.323593 802.433594,238.698074 
	C801.513733,234.186859 802.719543,229.212234 803.291321,224.471970 
	C803.350281,223.983398 805.341003,223.727844 806.435303,223.364182 
	C806.969482,225.205612 808.519287,227.705627 807.836792,228.758102 
	C806.163940,231.337814 806.309387,233.206268 808.293335,235.639526 
z"/>
<path fill="#DDDDDE" opacity="1.000000" stroke="none" 
	d="
M885.371948,318.005005 
	C885.000000,318.000000 884.500000,318.000000 884.250000,318.000000 
	C883.352173,315.297424 882.704346,312.594879 881.709595,308.445007 
	C885.501221,308.445007 888.691711,308.445007 891.882202,308.445007 
	C891.725891,311.257538 892.042603,314.232880 891.160645,316.795746 
	C890.844971,317.713165 887.633606,317.634216 885.371948,318.005005 
z"/>
<path fill="#DFDFDF" opacity="1.000000" stroke="none" 
	d="
M814.948608,214.296402 
	C814.754333,216.705276 814.596252,218.711365 814.438232,220.717453 
	C814.924255,221.041168 815.410217,221.364883 815.896179,221.688599 
	C814.276489,222.207962 812.656799,222.727310 811.793579,223.004105 
	C810.761353,218.929382 809.662292,215.513763 809.102295,212.011948 
	C808.797852,210.108200 809.215210,208.003372 809.745911,206.112381 
	C809.877563,205.643356 812.394348,205.169342 812.649597,205.527649 
	C813.680603,206.975082 814.421021,208.697189 814.939270,210.417145 
	C815.260742,211.483673 814.989868,212.728699 814.948608,214.296402 
z"/>
<path fill="#DFDFDF" opacity="1.000000" stroke="none" 
	d="
M811.966064,202.934265 
	C807.621338,199.951233 808.313782,195.749786 814.254883,190.515671 
	C815.467651,193.919098 816.899658,196.947937 817.391357,200.122421 
	C817.494080,200.785995 814.127197,201.986908 811.966064,202.934265 
z"/>
<path fill="#DDDDDD" opacity="1.000000" stroke="none" 
	d="
M753.000000,150.435989 
	C754.714355,150.003922 756.428711,150.002960 758.571533,150.003754 
	C758.369995,155.188919 757.739929,160.372330 757.109863,165.555756 
	C756.522461,165.534821 755.934998,165.513901 755.347534,165.492981 
	C754.565002,160.617676 753.782471,155.742386 753.000000,150.435989 
z"/>
<path fill="#DDDDDD" opacity="1.000000" stroke="none" 
	d="
M893.750000,298.000000 
	C894.000000,299.388885 894.000000,300.777802 894.000000,302.583344 
	C890.887756,302.779816 887.775452,302.559662 884.235352,301.919250 
	C883.871704,300.666046 883.935852,299.833008 884.000000,299.000000 
	C885.771790,298.668732 887.543579,298.337463 890.032715,298.003113 
	C891.500000,298.000000 892.250000,298.000000 893.000000,298.000000 
	C893.000000,298.000000 893.500000,298.000000 893.750000,298.000000 
z"/>
<path fill="#DDDDDD" opacity="1.000000" stroke="none" 
	d="
M805.693481,207.509186 
	C804.957764,207.465057 804.242798,207.354355 804.160278,207.063919 
	C803.696045,205.430206 803.384155,203.753235 803.020264,202.091019 
	C804.192017,202.088196 805.715454,201.610962 806.470215,202.170578 
	C808.841003,203.928299 808.018860,205.784790 805.693481,207.509186 
z"/>
<path fill="#DFDFDF" opacity="1.000000" stroke="none" 
	d="
M810.069702,231.968628 
	C811.369690,230.965775 812.674194,230.333771 813.978760,229.701767 
	C814.025085,230.562424 814.448853,231.732101 814.045593,232.224670 
	C812.921692,233.597458 811.461914,235.203995 810.069702,231.968628 
z"/>
<path fill="#DFDFDF" opacity="1.000000" stroke="none" 
	d="
M734.344055,160.442108 
	C735.167786,159.147949 736.141907,158.171860 737.116028,157.195770 
	C737.618225,157.938446 738.120361,158.681137 738.622559,159.423828 
	C737.246521,159.869278 735.870483,160.314728 734.344055,160.442108 
z"/>
<path fill="#DDDDDD" opacity="1.000000" stroke="none" 
	d="
M823.506958,227.873352 
	C821.623413,227.878555 820.115723,227.806244 818.607971,227.733917 
	C818.580566,227.228226 818.553162,226.722519 818.525696,226.216827 
	C820.533264,226.066223 822.540771,225.915604 824.548218,225.764984 
	C824.326416,226.441925 824.104614,227.118866 823.506958,227.873352 
z"/>
<path fill="#DDDDDD" opacity="1.000000" stroke="none" 
	d="
M780.545044,201.762177 
	C779.871521,202.542450 779.313416,203.024414 778.755371,203.506378 
	C778.642456,202.799805 778.529480,202.093246 778.416565,201.386688 
	C779.164551,201.412415 779.912476,201.438141 780.545044,201.762177 
z"/>
<path fill="#DDDDDD" opacity="1.000000" stroke="none" 
	d="
M779.945801,188.431290 
	C780.081787,189.511505 779.920288,190.601608 779.758789,191.691711 
	C779.270142,191.545303 778.781494,191.398895 778.292847,191.252487 
	C778.744629,190.315384 779.196472,189.378281 779.945801,188.431290 
z"/>
<path fill="#DDDDDE" opacity="1.000000" stroke="none" 
	d="
M883.631226,299.008270 
	C883.935852,299.833008 883.871704,300.666046 883.903809,301.749542 
	C883.084229,301.619659 882.168518,301.239288 881.252808,300.858887 
	C881.922668,300.244751 882.592590,299.630646 883.631226,299.008270 
z"/>
<path fill="#DDDDDD" opacity="1.000000" stroke="none" 
	d="
M822.434937,194.605865 
	C822.131348,195.496521 821.623596,196.177582 821.115906,196.858643 
	C820.810730,196.517288 820.505554,196.175919 820.200378,195.834549 
	C820.877197,195.355118 821.554016,194.875687 822.434937,194.605865 
z"/>
<path fill="#DFDFDF" opacity="1.000000" stroke="none" 
	d="
M736.005737,150.348694 
	C736.444458,150.003357 736.888916,150.002441 737.666626,150.002899 
	C737.700195,150.836624 737.400452,151.668976 737.100708,152.501358 
	C736.737610,151.898621 736.374512,151.295868 736.005737,150.348694 
z"/>
<path fill="#DFDFDF" opacity="1.000000" stroke="none" 
	d="
M763.504578,168.329330 
	C762.963440,167.986420 762.639038,167.429825 762.314697,166.873230 
	C762.592224,166.746658 762.869690,166.620087 763.147217,166.493530 
	C763.338562,167.034225 763.529968,167.574936 763.504578,168.329330 
z"/>
<path fill="#DDDDDE" opacity="1.000000" stroke="none" 
	d="
M892.949402,297.666534 
	C892.250000,298.000000 891.500000,298.000000 890.375000,298.000000 
	C890.966248,297.777679 891.932556,297.555389 892.949402,297.666534 
z"/>
<path fill="#DDDDDD" opacity="1.000000" stroke="none" 
	d="
M778.986938,217.532639 
	C778.590088,216.951050 778.492737,216.373123 778.395386,215.795197 
	C778.804016,215.800354 779.212585,215.805511 779.621216,215.810684 
	C779.509644,216.385880 779.398071,216.961075 778.986938,217.532639 
z"/>
<path fill="#DFDFDF" opacity="1.000000" stroke="none" 
	d="
M726.601562,155.045334 
	C726.208008,155.285431 725.816528,155.283676 725.427185,155.253586 
	C725.416199,155.252731 725.428650,154.949265 725.430176,154.786911 
	C725.821411,154.791122 726.212708,154.795319 726.601562,155.045334 
z"/>
<path fill="#DFDFDF" opacity="1.000000" stroke="none" 
	d="
M763.398438,159.954636 
	C763.792053,159.714584 764.183594,159.716324 764.572937,159.746429 
	C764.583923,159.747269 764.571472,160.050751 764.569946,160.213120 
	C764.178650,160.208878 763.787354,160.204651 763.398438,159.954636 
z"/>
<path fill="#DFDFDF" opacity="1.000000" stroke="none" 
	d="
M763.045288,173.398468 
	C763.285400,173.792099 763.283630,174.183594 763.253479,174.572906 
	C763.252625,174.583847 762.949219,174.571396 762.786865,174.569839 
	C762.791077,174.178574 762.795288,173.787323 763.045288,173.398468 
z"/>
<path fill="#DFDFDF" opacity="1.000000" stroke="none" 
	d="
M782.398499,194.954620 
	C782.792114,194.714569 783.183594,194.716354 783.572937,194.746445 
	C783.583923,194.747299 783.571411,195.050751 783.569885,195.213104 
	C783.178650,195.208878 782.787354,195.204651 782.398499,194.954620 
z"/>
<path fill="#DDDDDD" opacity="1.000000" stroke="none" 
	d="
M806.045410,218.398438 
	C806.285461,218.792068 806.283691,219.183563 806.253540,219.572861 
	C806.252747,219.583801 805.949280,219.571350 805.786926,219.569809 
	C805.791138,219.178528 805.795410,218.787262 806.045410,218.398438 
z"/>
<path fill="#DFDFDF" opacity="1.000000" stroke="none" 
	d="
M867.454102,338.000000 
	C865.499573,337.397644 863.853760,337.005402 862.557312,336.108276 
	C861.862122,335.627197 861.298340,334.140472 861.527588,333.356842 
	C861.783691,332.480835 863.134521,331.170593 863.785156,331.288147 
	C867.676697,331.991180 871.551392,332.902832 875.314453,334.109985 
	C876.122498,334.369202 876.448792,336.130127 876.998535,337.599670 
	C873.969421,338.000000 870.938782,338.000000 867.454102,338.000000 
z"/>
</svg>